<?xml version="1.0" encoding="utf-8"?>
<!-- Generator: Adobe Illustrator 16.0.0, SVG Export Plug-In . SVG Version: 6.00 Build 0)  -->
<!DOCTYPE svg PUBLIC "-//W3C//DTD SVG 1.1//EN" "http://www.w3.org/Graphics/SVG/1.1/DTD/svg11.dtd">
<svg version="1.1" id="图层_1" xmlns="http://www.w3.org/2000/svg" xmlns:xlink="http://www.w3.org/1999/xlink" x="0px" y="0px"
	 width="595.279px" height="591px" viewBox="0 126.445 595.279 591" enable-background="new 0 126.445 595.279 591"
	 xml:space="preserve">
<g>
	<path fill="#0690CF" d="M506.634,424.359L297.71,239.329L88.658,424.435v264.502c0,6.83,5.521,12.311,12.352,12.311h130.646
		V585.275c0-6.832,5.479-12.352,12.311-12.352h107.351c6.831,0,12.311,5.52,12.311,12.352v115.973h130.685
		c6.832,0,8.462,0.936,12.312-12.311V424.345L506.634,424.359z"/>
	<path fill="#0690CF" d="M296.491,138.068L0,400.593l31.231,35.235l266.477-235.962L564.12,435.828l31.171-35.235L298.865,138.068
		l-1.152,1.334l-1.213-1.334H296.491z"/>
</g>
</svg>
